STARTFONT 2.1
COMMENT
COMMENT Converted from TrueType font "pfont.ttf" by "ttf2bdf 1.9".
COMMENT
FONT -FreeType-Persian-Medium-R-Normal--17-120-100-100-P-79-Symbol-0
SIZE 12 100 100
FONTBOUNDINGBOX 19 18 -1 -6
STARTPROPERTIES 19
FOUNDRY "FreeType"
FAMILY_NAME "Persian"
WEIGHT_NAME "Medium"
SLANT "R"
SETWIDTH_NAME "Normal"
ADD_STYLE_NAME ""
PIXEL_SIZE 17
POINT_SIZE 120
RESOLUTION_X 100
RESOLUTION_Y 100
SPACING "P"
AVERAGE_WIDTH 79
CHARSET_REGISTRY "Symbol"
CHARSET_ENCODING "0"
FONT_ASCENT 14
FONT_DESCENT 3
COPYRIGHT "Typeface © The Monotype Corporation plc. Data © The Monotype Corporation plc/Type Solutions Inc. 1990-1992. All Rights Reserved"
_TTF_FONTFILE "pfont.ttf"
_TTF_PSNAME "TimesNewRomanPSMT"
ENDPROPERTIES
CHARS 179
STARTCHAR 0020
ENCODING 32
SWIDTH 240 0
DWIDTH 4 0
BBX 1 1 0 0
BITMAP
00
ENDCHAR
STARTCHAR 0021
ENCODING 33
SWIDTH 360 0
DWIDTH 6 0
BBX 1 11 2 0
BITMAP
80
80
80
80
80
80
80
80
00
00
80
ENDCHAR
STARTCHAR 0022
ENCODING 34
SWIDTH 420 0
DWIDTH 7 0
BBX 5 4 1 7
BITMAP
88
88
88
88
ENDCHAR
STARTCHAR 0023
ENCODING 35
SWIDTH 480 0
DWIDTH 8 0
BBX 8 11 0 0
BITMAP
12
12
12
FF
24
24
24
FF
64
48
48
ENDCHAR
STARTCHAR 0024
ENCODING 36
SWIDTH 480 0
DWIDTH 8 0
BBX 7 12 1 -1
BITMAP
78
9C
94
94
50
38
1C
16
96
D6
FC
10
ENDCHAR
STARTCHAR 0025
ENCODING 37
SWIDTH 840 0
DWIDTH 14 0
BBX 13 11 1 0
BITMAP
E040
A080
9100
9100
A260
E490
0890
0888
1098
2090
6060
ENDCHAR
STARTCHAR 0026
ENCODING 38
SWIDTH 780 0
DWIDTH 13 0
BBX 11 11 1 0
BITMAP
0E00
1300
1200
13E0
3CC0
3080
C880
8500
8600
8700
79E0
ENDCHAR
STARTCHAR 0027
ENCODING 39
SWIDTH 120 0
DWIDTH 2 0
BBX 1 4 0 7
BITMAP
80
80
80
80
ENDCHAR
STARTCHAR 0028
ENCODING 40
SWIDTH 300 0
DWIDTH 5 0
BBX 4 14 0 -3
BITMAP
10
20
40
40
80
80
80
80
80
80
80
40
20
10
ENDCHAR
STARTCHAR 0029
ENCODING 41
SWIDTH 360 0
DWIDTH 6 0
BBX 4 13 1 -3
BITMAP
C0
20
20
10
10
10
10
10
10
20
20
40
80
ENDCHAR
STARTCHAR 002A
ENCODING 42
SWIDTH 480 0
DWIDTH 8 0
BBX 7 6 1 5
BITMAP
D2
F6
18
7C
D4
10
ENDCHAR
STARTCHAR 002B
ENCODING 43
SWIDTH 540 0
DWIDTH 9 0
BBX 9 9 0 1
BITMAP
0800
0800
0800
0800
FF80
0800
0800
0800
0800
ENDCHAR
STARTCHAR 002C
ENCODING 44
SWIDTH 240 0
DWIDTH 4 0
BBX 2 4 1 -3
BITMAP
C0
40
40
80
ENDCHAR
STARTCHAR 002D
ENCODING 45
SWIDTH 300 0
DWIDTH 5 0
BBX 4 1 0 3
BITMAP
F0
ENDCHAR
STARTCHAR 002E
ENCODING 46
SWIDTH 240 0
DWIDTH 4 0
BBX 1 1 1 0
BITMAP
80
ENDCHAR
STARTCHAR 002F
ENCODING 47
SWIDTH 300 0
DWIDTH 5 0
BBX 4 11 0 0
BITMAP
10
10
20
20
20
40
40
40
40
80
80
ENDCHAR
STARTCHAR 0030
ENCODING 48
SWIDTH 480 0
DWIDTH 8 0
BBX 7 11 1 0
BITMAP
38
4C
84
84
82
82
82
84
84
4C
38
ENDCHAR
STARTCHAR 0031
ENCODING 49
SWIDTH 480 0
DWIDTH 8 0
BBX 3 11 3 0
BITMAP
C0
40
40
40
40
40
40
40
40
40
E0
ENDCHAR
STARTCHAR 0032
ENCODING 50
SWIDTH 480 0
DWIDTH 8 0
BBX 6 11 1 0
BITMAP
78
8C
04
04
04
08
10
20
20
44
FC
ENDCHAR
STARTCHAR 0033
ENCODING 51
SWIDTH 480 0
DWIDTH 8 0
BBX 6 11 1 0
BITMAP
78
8C
04
08
10
38
0C
04
08
08
F0
ENDCHAR
STARTCHAR 0034
ENCODING 52
SWIDTH 480 0
DWIDTH 8 0
BBX 8 11 0 0
BITMAP
04
0C
1C
14
24
64
44
FF
04
04
04
ENDCHAR
STARTCHAR 0035
ENCODING 53
SWIDTH 480 0
DWIDTH 8 0
BBX 6 11 1 0
BITMAP
3C
40
40
F0
38
0C
04
04
04
08
F0
ENDCHAR
STARTCHAR 0036
ENCODING 54
SWIDTH 480 0
DWIDTH 8 0
BBX 7 11 1 0
BITMAP
08
30
60
58
A4
86
82
82
84
44
38
ENDCHAR
STARTCHAR 0037
ENCODING 55
SWIDTH 420 0
DWIDTH 7 0
BBX 7 11 0 0
BITMAP
FE
84
04
08
08
08
10
10
10
20
20
ENDCHAR
STARTCHAR 0038
ENCODING 56
SWIDTH 480 0
DWIDTH 8 0
BBX 6 11 1 0
BITMAP
78
84
84
48
30
58
8C
84
84
CC
78
ENDCHAR
STARTCHAR 0039
ENCODING 57
SWIDTH 480 0
DWIDTH 8 0
BBX 7 11 1 0
BITMAP
78
84
84
82
C6
7E
04
0C
18
30
E0
ENDCHAR
STARTCHAR 003A
ENCODING 58
SWIDTH 180 0
DWIDTH 3 0
BBX 1 8 1 0
BITMAP
80
00
00
00
00
00
00
80
ENDCHAR
STARTCHAR 003B
ENCODING 59
SWIDTH 300 0
DWIDTH 5 0
BBX 2 11 1 -3
BITMAP
80
00
00
00
00
00
00
C0
40
40
80
ENDCHAR
STARTCHAR 003C
ENCODING 60
SWIDTH 540 0
DWIDTH 9 0
BBX 9 9 0 1
BITMAP
0180
0700
1C00
3000
C000
3000
0C00
0300
0080
ENDCHAR
STARTCHAR 003D
ENCODING 61
SWIDTH 540 0
DWIDTH 9 0
BBX 9 4 0 4
BITMAP
FF80
0000
0000
FF80
ENDCHAR
STARTCHAR 003E
ENCODING 62
SWIDTH 540 0
DWIDTH 9 0
BBX 9 9 0 1
BITMAP
C000
7000
1C00
0600
0180
0600
1C00
7000
C000
ENDCHAR
STARTCHAR 003F
ENCODING 63
SWIDTH 420 0
DWIDTH 7 0
BBX 6 11 1 0
BITMAP
78
88
C4
04
08
10
10
20
20
00
20
ENDCHAR
STARTCHAR 0040
ENCODING 64
SWIDTH 900 0
DWIDTH 15 0
BBX 14 14 1 -3
BITMAP
07E0
1830
2008
4348
C4C4
8844
9884
9088
9388
9290
5CE4
6008
3030
0FC0
ENDCHAR
STARTCHAR 0041
ENCODING 65
SWIDTH 720 0
DWIDTH 12 0
BBX 11 10 1 0
BITMAP
0C00
0C00
1200
1200
2200
2100
3F00
4080
8080
E3E0
ENDCHAR
STARTCHAR 0042
ENCODING 66
SWIDTH 660 0
DWIDTH 11 0
BBX 10 11 0 0
BITMAP
FF00
2180
2080
2080
3F00
3080
2040
2040
2040
20C0
FF80
ENDCHAR
STARTCHAR 0043
ENCODING 67
SWIDTH 660 0
DWIDTH 11 0
BBX 9 11 1 0
BITMAP
1E00
6180
4080
8000
8000
8000
8000
8000
8000
6180
1E00
ENDCHAR
STARTCHAR 0044
ENCODING 68
SWIDTH 720 0
DWIDTH 12 0
BBX 11 11 0 0
BITMAP
FF00
20C0
2020
2020
2020
2020
2020
2020
2040
20C0
FF00
ENDCHAR
STARTCHAR 0045
ENCODING 69
SWIDTH 600 0
DWIDTH 10 0
BBX 10 11 0 0
BITMAP
FF80
2080
2100
2100
3F00
2100
2000
2000
2040
2080
FF80
ENDCHAR
STARTCHAR 0046
ENCODING 70
SWIDTH 540 0
DWIDTH 9 0
BBX 9 11 0 0
BITMAP
FF00
2080
2200
2200
3E00
2200
2200
2000
2000
2000
F800
ENDCHAR
STARTCHAR 0047
ENCODING 71
SWIDTH 720 0
DWIDTH 12 0
BBX 11 11 1 0
BITMAP
1F00
6080
4000
8000
80E0
80C0
8040
8040
C040
60C0
1F80
ENDCHAR
STARTCHAR 0048
ENCODING 72
SWIDTH 720 0
DWIDTH 12 0
BBX 12 11 0 0
BITMAP
F9F0
2040
2040
2040
2040
3FC0
2040
2040
2040
2040
F9F0
ENDCHAR
STARTCHAR 0049
ENCODING 73
SWIDTH 360 0
DWIDTH 6 0
BBX 5 11 0 0
BITMAP
F8
30
20
20
20
20
20
20
20
30
F8
ENDCHAR
STARTCHAR 004A
ENCODING 74
SWIDTH 360 0
DWIDTH 6 0
BBX 6 11 0 0
BITMAP
7C
10
10
10
10
10
10
10
10
10
E0
ENDCHAR
STARTCHAR 004B
ENCODING 75
SWIDTH 720 0
DWIDTH 12 0
BBX 12 11 0 0
BITMAP
F9E0
2080
2100
2600
3C00
2C00
2600
2300
2180
20C0
F9F0
ENDCHAR
STARTCHAR 004C
ENCODING 76
SWIDTH 600 0
DWIDTH 10 0
BBX 10 11 0 0
BITMAP
F800
3000
2000
2000
2000
2000
2000
2000
2040
2080
FF80
ENDCHAR
STARTCHAR 004D
ENCODING 77
SWIDTH 900 0
DWIDTH 15 0
BBX 15 11 0 0
BITMAP
F00E
3818
2818
2828
2428
2448
24C8
2288
2308
2308
F83E
ENDCHAR
STARTCHAR 004E
ENCODING 78
SWIDTH 720 0
DWIDTH 12 0
BBX 12 11 0 0
BITMAP
E1F0
7040
3040
2840
2440
2240
2340
2140
20C0
2040
F800
ENDCHAR
STARTCHAR 004F
ENCODING 79
SWIDTH 720 0
DWIDTH 12 0
BBX 11 11 1 0
BITMAP
1E00
6180
8040
8040
8060
8020
8040
8040
C040
6180
1E00
ENDCHAR
STARTCHAR 0050
ENCODING 80
SWIDTH 540 0
DWIDTH 9 0
BBX 8 11 0 0
BITMAP
FE
21
21
21
3E
20
20
20
20
20
F8
ENDCHAR
STARTCHAR 0051
ENCODING 81
SWIDTH 720 0
DWIDTH 12 0
BBX 11 14 1 -3
BITMAP
1E00
6180
8040
8040
8040
8020
8020
8040
C040
6180
1F00
0E00
0300
0080
ENDCHAR
STARTCHAR 0052
ENCODING 82
SWIDTH 660 0
DWIDTH 11 0
BBX 11 11 0 0
BITMAP
FF00
2080
2080
2080
2180
3E00
2400
2200
2300
2180
F8E0
ENDCHAR
STARTCHAR 0053
ENCODING 83
SWIDTH 540 0
DWIDTH 9 0
BBX 7 11 1 0
BITMAP
7A
C6
82
82
60
38
0C
02
82
C6
BC
ENDCHAR
STARTCHAR 0054
ENCODING 84
SWIDTH 600 0
DWIDTH 10 0
BBX 9 11 0 0
BITMAP
7F80
8880
0800
0800
0800
0800
0800
0800
0800
0C00
3F00
ENDCHAR
STARTCHAR 0055
ENCODING 85
SWIDTH 720 0
DWIDTH 12 0
BBX 12 11 0 0
BITMAP
F9F0
2040
2040
2040
2040
2040
2040
2040
2040
10C0
0F00
ENDCHAR
STARTCHAR 0056
ENCODING 86
SWIDTH 720 0
DWIDTH 12 0
BBX 10 11 1 0
BITMAP
E0C0
4080
4080
2100
2100
1100
1200
1A00
0C00
0C00
0400
ENDCHAR
STARTCHAR 0057
ENCODING 87
SWIDTH 960 0
DWIDTH 16 0
BBX 15 11 0 0
BITMAP
F78E
2184
2104
2188
1188
12C8
0A50
0A50
0C30
0420
0420
ENDCHAR
STARTCHAR 0058
ENCODING 88
SWIDTH 720 0
DWIDTH 12 0
BBX 12 11 0 0
BITMAP
FCF0
10C0
0980
0500
0600
0600
0D00
1980
1080
20C0
F1F0
ENDCHAR
STARTCHAR 0059
ENCODING 89
SWIDTH 720 0
DWIDTH 12 0
BBX 11 11 0 0
BITMAP
F1E0
2040
1180
1100
0A00
0600
0400
0400
0400
0400
1F00
ENDCHAR
STARTCHAR 005A
ENCODING 90
SWIDTH 600 0
DWIDTH 10 0
BBX 9 11 1 0
BITMAP
FF00
8200
8200
0400
0800
1800
1000
2000
4080
C100
FF00
ENDCHAR
STARTCHAR 005B
ENCODING 91
SWIDTH 360 0
DWIDTH 6 0
BBX 4 14 1 -3
BITMAP
F0
80
80
80
80
80
80
80
80
80
80
80
80
F0
ENDCHAR
STARTCHAR 005C
ENCODING 92
SWIDTH 300 0
DWIDTH 5 0
BBX 4 11 0 0
BITMAP
80
80
80
40
40
60
20
20
10
10
10
ENDCHAR
STARTCHAR 005D
ENCODING 93
SWIDTH 300 0
DWIDTH 5 0
BBX 3 14 0 -3
BITMAP
E0
20
20
20
20
20
20
20
20
20
20
20
20
E0
ENDCHAR
STARTCHAR 005E
ENCODING 94
SWIDTH 480 0
DWIDTH 8 0
BBX 6 5 1 6
BITMAP
20
30
48
C8
84
ENDCHAR
STARTCHAR 005F
ENCODING 95
SWIDTH 480 0
DWIDTH 8 0
BBX 8 1 0 -4
BITMAP
FF
ENDCHAR
STARTCHAR 0060
ENCODING 96
SWIDTH 360 0
DWIDTH 6 0
BBX 1 1 2 10
BITMAP
80
ENDCHAR
STARTCHAR 0061
ENCODING 97
SWIDTH 420 0
DWIDTH 7 0
BBX 6 8 1 0
BITMAP
F0
98
88
38
C8
88
98
EC
ENDCHAR
STARTCHAR 0062
ENCODING 98
SWIDTH 480 0
DWIDTH 8 0
BBX 8 11 0 0
BITMAP
C0
40
40
5C
62
41
41
41
41
42
3C
ENDCHAR
STARTCHAR 0063
ENCODING 99
SWIDTH 420 0
DWIDTH 7 0
BBX 6 8 1 0
BITMAP
78
C8
84
80
80
84
C8
70
ENDCHAR
STARTCHAR 0064
ENCODING 100
SWIDTH 480 0
DWIDTH 8 0
BBX 7 11 1 0
BITMAP
06
02
02
3A
46
82
82
82
82
C6
7A
ENDCHAR
STARTCHAR 0065
ENCODING 101
SWIDTH 420 0
DWIDTH 7 0
BBX 6 8 1 0
BITMAP
70
88
88
FC
80
80
C0
78
ENDCHAR
STARTCHAR 0066
ENCODING 102
SWIDTH 360 0
DWIDTH 6 0
BBX 6 11 1 0
BITMAP
3C
40
40
F0
40
40
40
40
40
40
F0
ENDCHAR
STARTCHAR 0067
ENCODING 103
SWIDTH 480 0
DWIDTH 8 0
BBX 7 11 1 -3
BITMAP
3C
4C
4C
48
48
70
80
7C
86
84
F8
ENDCHAR
STARTCHAR 0068
ENCODING 104
SWIDTH 480 0
DWIDTH 8 0
BBX 8 11 0 0
BITMAP
C0
40
40
4C
76
42
42
42
42
42
E7
ENDCHAR
STARTCHAR 0069
ENCODING 105
SWIDTH 300 0
DWIDTH 5 0
BBX 3 11 1 0
BITMAP
40
00
00
00
C0
40
40
40
40
60
E0
ENDCHAR
STARTCHAR 006A
ENCODING 106
SWIDTH 300 0
DWIDTH 5 0
BBX 4 14 -1 -3
BITMAP
10
00
00
10
30
10
10
10
10
10
10
10
20
E0
ENDCHAR
STARTCHAR 006B
ENCODING 107
SWIDTH 480 0
DWIDTH 8 0
BBX 8 11 0 0
BITMAP
C0
40
40
47
44
48
50
70
48
46
E7
ENDCHAR
STARTCHAR 006C
ENCODING 108
SWIDTH 300 0
DWIDTH 5 0
BBX 4 11 0 0
BITMAP
60
60
40
40
40
40
40
40
40
60
F0
ENDCHAR
STARTCHAR 006D
ENCODING 109
SWIDTH 780 0
DWIDTH 13 0
BBX 13 8 0 0
BITMAP
4CE0
7310
4210
4210
4210
4210
4210
E738
ENDCHAR
STARTCHAR 006E
ENCODING 110
SWIDTH 480 0
DWIDTH 8 0
BBX 8 8 0 0
BITMAP
4C
72
42
42
42
42
42
E7
ENDCHAR
STARTCHAR 006F
ENCODING 111
SWIDTH 480 0
DWIDTH 8 0
BBX 7 8 1 0
BITMAP
78
8C
84
86
82
84
C4
78
ENDCHAR
STARTCHAR 0070
ENCODING 112
SWIDTH 480 0
DWIDTH 8 0
BBX 8 11 0 -3
BITMAP
5C
62
41
41
41
41
62
7C
40
40
E0
ENDCHAR
STARTCHAR 0071
ENCODING 113
SWIDTH 480 0
DWIDTH 8 0
BBX 8 11 1 -3
BITMAP
3A
46
82
82
82
82
C6
FA
72
06
07
ENDCHAR
STARTCHAR 0072
ENCODING 114
SWIDTH 360 0
DWIDTH 6 0
BBX 6 8 0 0
BITMAP
DC
60
40
40
40
40
40
E0
ENDCHAR
STARTCHAR 0073
ENCODING 115
SWIDTH 360 0
DWIDTH 6 0
BBX 5 8 1 0
BITMAP
70
90
80
40
30
08
88
70
ENDCHAR
STARTCHAR 0074
ENCODING 116
SWIDTH 300 0
DWIDTH 5 0
BBX 4 9 0 0
BITMAP
40
F0
40
40
40
40
40
40
70
ENDCHAR
STARTCHAR 0075
ENCODING 117
SWIDTH 480 0
DWIDTH 8 0
BBX 7 8 0 0
BITMAP
CE
42
42
42
42
42
46
3A
ENDCHAR
STARTCHAR 0076
ENCODING 118
SWIDTH 480 0
DWIDTH 8 0
BBX 8 8 0 0
BITMAP
F3
62
22
24
14
1C
18
08
ENDCHAR
STARTCHAR 0077
ENCODING 119
SWIDTH 720 0
DWIDTH 12 0
BBX 12 8 0 0
BITMAP
EF30
6620
6660
2640
2D40
1980
1980
1080
ENDCHAR
STARTCHAR 0078
ENCODING 120
SWIDTH 480 0
DWIDTH 8 0
BBX 8 8 0 0
BITMAP
EE
64
38
10
10
28
48
4F
ENDCHAR
STARTCHAR 0079
ENCODING 121
SWIDTH 480 0
DWIDTH 8 0
BBX 8 11 0 -3
BITMAP
F3
62
22
24
14
14
08
08
10
10
E0
ENDCHAR
STARTCHAR 007A
ENCODING 122
SWIDTH 420 0
DWIDTH 7 0
BBX 7 8 0 0
BITMAP
7E
46
0C
08
10
20
60
FE
ENDCHAR
STARTCHAR 007B
ENCODING 123
SWIDTH 480 0
DWIDTH 8 0
BBX 3 14 3 -3
BITMAP
20
C0
80
C0
40
40
80
80
40
40
C0
80
80
60
ENDCHAR
STARTCHAR 007C
ENCODING 124
SWIDTH 180 0
DWIDTH 3 0
BBX 1 14 1 -3
BITMAP
80
80
80
80
80
80
80
80
80
80
80
80
80
80
ENDCHAR
STARTCHAR 007D
ENCODING 125
SWIDTH 480 0
DWIDTH 8 0
BBX 3 14 2 -3
BITMAP
80
40
40
40
40
40
20
20
40
40
40
40
40
80
ENDCHAR
STARTCHAR 007E
ENCODING 126
SWIDTH 540 0
DWIDTH 9 0
BBX 9 3 0 3
BITMAP
7000
8C80
8300
ENDCHAR
STARTCHAR 0080
ENCODING 128
SWIDTH 420 0
DWIDTH 7 0
BBX 2 2 2 3
BITMAP
80
40
ENDCHAR
STARTCHAR 0081
ENCODING 129
SWIDTH 420 0
DWIDTH 7 0
BBX 4 9 1 0
BITMAP
80
C0
40
60
20
20
30
10
10
ENDCHAR
STARTCHAR 0082
ENCODING 130
SWIDTH 480 0
DWIDTH 8 0
BBX 6 9 1 0
BITMAP
84
C8
78
20
20
30
10
10
10
ENDCHAR
STARTCHAR 0083
ENCODING 131
SWIDTH 480 0
DWIDTH 8 0
BBX 6 9 1 0
BITMAP
84
9C
E0
40
60
20
20
20
20
ENDCHAR
STARTCHAR 0084
ENCODING 132
SWIDTH 480 0
DWIDTH 8 0
BBX 5 9 1 0
BITMAP
18
A0
F8
40
60
20
20
20
20
ENDCHAR
STARTCHAR 0085
ENCODING 133
SWIDTH 480 0
DWIDTH 8 0
BBX 6 9 1 0
BITMAP
20
70
58
C8
8C
84
84
A8
D8
ENDCHAR
STARTCHAR 0086
ENCODING 134
SWIDTH 420 0
DWIDTH 7 0
BBX 6 7 0 2
BITMAP
30
40
4C
7C
60
40
80
ENDCHAR
STARTCHAR 0087
ENCODING 135
SWIDTH 480 0
DWIDTH 8 0
BBX 7 7 1 2
BITMAP
82
84
CC
48
70
30
30
ENDCHAR
STARTCHAR 0088
ENCODING 136
SWIDTH 480 0
DWIDTH 8 0
BBX 8 8 0 0
BITMAP
10
18
38
28
64
44
86
03
ENDCHAR
STARTCHAR 0089
ENCODING 137
SWIDTH 480 0
DWIDTH 8 0
BBX 6 8 1 1
BITMAP
60
90
90
F0
10
08
08
04
ENDCHAR
STARTCHAR 008A
ENCODING 138
SWIDTH 240 0
DWIDTH 4 0
BBX 2 2 1 1
BITMAP
40
80
ENDCHAR
STARTCHAR 008B
ENCODING 139
SWIDTH 360 0
DWIDTH 6 0
BBX 5 9 1 0
BITMAP
78
48
80
40
70
10
10
00
18
ENDCHAR
STARTCHAR 008C
ENCODING 140
SWIDTH 300 0
DWIDTH 5 0
BBX 4 12 2 0
BITMAP
90
60
40
40
40
40
40
40
40
40
60
40
ENDCHAR
STARTCHAR 008D
ENCODING 141
SWIDTH 300 0
DWIDTH 5 0
BBX 4 12 2 0
BITMAP
90
60
40
40
40
40
40
40
40
40
60
40
ENDCHAR
STARTCHAR 008E
ENCODING 142
SWIDTH 240 0
DWIDTH 4 0
BBX 5 9 -1 0
BITMAP
10
20
10
20
00
08
08
08
F8
ENDCHAR
STARTCHAR 008F
ENCODING 143
SWIDTH 0 0
DWIDTH 0 0
BBX 3 3 0 -3
BITMAP
C0
E0
80
ENDCHAR
STARTCHAR 0090
ENCODING 144
SWIDTH 180 0
DWIDTH 3 0
BBX 1 9 2 1
BITMAP
80
80
80
80
80
80
80
80
80
ENDCHAR
STARTCHAR 0091
ENCODING 145
SWIDTH 240 0
DWIDTH 4 0
BBX 4 9 1 0
BITMAP
80
80
80
80
80
80
80
40
30
ENDCHAR
STARTCHAR 0092
ENCODING 146
SWIDTH 660 0
DWIDTH 11 0
BBX 9 9 2 -4
BITMAP
0080
0080
0080
8080
FF00
0000
0000
0800
0C00
ENDCHAR
STARTCHAR 0093
ENCODING 147
SWIDTH 360 0
DWIDTH 6 0
BBX 6 9 0 -4
BITMAP
08
0C
0C
04
FC
00
00
10
10
ENDCHAR
STARTCHAR 0094
ENCODING 148
SWIDTH 660 0
DWIDTH 11 0
BBX 9 10 2 -5
BITMAP
0080
0080
0080
8080
F100
0E00
0000
3000
0C00
0C00
ENDCHAR
STARTCHAR 0095
ENCODING 149
SWIDTH 300 0
DWIDTH 5 0
BBX 5 10 -1 -5
BITMAP
08
08
08
08
F8
00
00
30
18
08
ENDCHAR
STARTCHAR 0096
ENCODING 150
SWIDTH 660 0
DWIDTH 11 0
BBX 9 6 2 0
BITMAP
2400
1C00
0080
0080
8080
FF00
ENDCHAR
STARTCHAR 0097
ENCODING 151
SWIDTH 300 0
DWIDTH 5 0
BBX 5 8 -1 0
BITMAP
78
00
00
00
08
08
08
F8
ENDCHAR
STARTCHAR 0098
ENCODING 152
SWIDTH 660 0
DWIDTH 11 0
BBX 9 8 2 0
BITMAP
1000
1800
0C00
0400
0080
0080
8080
FF00
ENDCHAR
STARTCHAR 0099
ENCODING 153
SWIDTH 300 0
DWIDTH 5 0
BBX 5 10 -1 0
BITMAP
20
10
30
18
00
00
08
08
08
F8
ENDCHAR
STARTCHAR 009A
ENCODING 154
SWIDTH 480 0
DWIDTH 8 0
BBX 8 10 1 -6
BITMAP
62
BE
30
40
40
C8
C0
40
61
3E
ENDCHAR
STARTCHAR 009B
ENCODING 155
SWIDTH 660 0
DWIDTH 11 0
BBX 11 9 0 -4
BITMAP
1C00
0600
0300
3080
FFE0
0000
0000
0C00
0400
ENDCHAR
STARTCHAR 009C
ENCODING 156
SWIDTH 480 0
DWIDTH 8 0
BBX 8 10 1 -6
BITMAP
62
BE
30
40
70
DC
C8
44
61
3E
ENDCHAR
STARTCHAR 009D
ENCODING 157
SWIDTH 600 0
DWIDTH 10 0
BBX 11 10 -1 -5
BITMAP
1C00
1E00
0300
00C0
FFE0
0000
0400
0700
0300
0100
ENDCHAR
STARTCHAR 009E
ENCODING 158
SWIDTH 480 0
DWIDTH 8 0
BBX 8 10 1 -6
BITMAP
62
BE
30
40
40
C0
C0
40
61
3E
ENDCHAR
STARTCHAR 009F
ENCODING 159
SWIDTH 660 0
DWIDTH 11 0
BBX 11 5 0 0
BITMAP
1C00
0600
0300
0080
FFE0
ENDCHAR
STARTCHAR 00A0
ENCODING 160
SWIDTH 660 0
DWIDTH 11 0
BBX 11 9 0 0
BITMAP
0C00
0400
0000
0000
0000
1E00
0300
0080
FFE0
ENDCHAR
STARTCHAR 00A1
ENCODING 161
SWIDTH 660 0
DWIDTH 11 0
BBX 11 9 0 0
BITMAP
0C00
0400
0000
0000
0000
1E00
0300
0080
FFE0
ENDCHAR
STARTCHAR 00A2
ENCODING 162
SWIDTH 420 0
DWIDTH 7 0
BBX 5 7 2 0
BITMAP
10
10
10
18
08
08
F0
ENDCHAR
STARTCHAR 00A3
ENCODING 163
SWIDTH 420 0
DWIDTH 7 0
BBX 5 9 2 0
BITMAP
60
00
00
10
10
18
08
08
F0
ENDCHAR
STARTCHAR 00A4
ENCODING 164
SWIDTH 480 0
DWIDTH 8 0
BBX 7 7 1 -3
BITMAP
04
06
02
02
04
8C
70
ENDCHAR
STARTCHAR 00A5
ENCODING 165
SWIDTH 480 0
DWIDTH 8 0
BBX 7 11 1 -3
BITMAP
30
00
00
00
04
0C
02
02
06
8C
70
ENDCHAR
STARTCHAR 00A6
ENCODING 166
SWIDTH 480 0
DWIDTH 8 0
BBX 7 12 1 -3
BITMAP
30
10
18
04
00
04
0C
02
02
06
8C
70
ENDCHAR
STARTCHAR 00A7
ENCODING 167
SWIDTH 900 0
DWIDTH 15 0
BBX 14 6 1 -3
BITMAP
0124
4124
41FC
8100
4100
7E00
ENDCHAR
STARTCHAR 00A8
ENCODING 168
SWIDTH 720 0
DWIDTH 12 0
BBX 12 3 -1 0
BITMAP
08D0
0890
FFF0
ENDCHAR
STARTCHAR 00A9
ENCODING 169
SWIDTH 900 0
DWIDTH 15 0
BBX 14 12 1 -3
BITMAP
0020
0000
0030
0008
0000
0000
0124
4124
41FC
8100
4100
7E00
ENDCHAR
STARTCHAR 00AA
ENCODING 170
SWIDTH 720 0
DWIDTH 12 0
BBX 12 9 -1 0
BITMAP
0180
0080
00C0
0020
0000
0000
08D0
0890
FFF0
ENDCHAR
STARTCHAR 00AB
ENCODING 171
SWIDTH 1140 0
DWIDTH 19 0
BBX 17 8 1 -3
BITMAP
000700
000980
011080
412080
41FF80
810000
410000
7E0000
ENDCHAR
STARTCHAR 00AC
ENCODING 172
SWIDTH 900 0
DWIDTH 15 0
BBX 16 5 -1 0
BITMAP
000C
0037
0861
0881
F7FF
ENDCHAR
STARTCHAR 00AD
ENCODING 173
SWIDTH 1140 0
DWIDTH 19 0
BBX 17 11 1 -3
BITMAP
000C00
000000
000000
000600
000980
011080
412080
41FF80
810780
410000
7E0000
ENDCHAR
STARTCHAR 00AE
ENCODING 174
SWIDTH 900 0
DWIDTH 15 0
BBX 16 8 -1 0
BITMAP
0030
0000
0000
0000
001C
0863
0881
F7FF
ENDCHAR
STARTCHAR 00AF
ENCODING 175
SWIDTH 540 0
DWIDTH 9 0
BBX 9 10 -1 0
BITMAP
1000
1000
1000
1000
1000
1000
1300
1480
1880
FF80
ENDCHAR
STARTCHAR 00B0
ENCODING 176
SWIDTH 480 0
DWIDTH 8 0
BBX 8 14 1 -6
BITMAP
10
08
00
00
62
BE
30
40
40
C0
C0
40
61
3E
ENDCHAR
STARTCHAR 00E0
ENCODING 224
SWIDTH 660 0
DWIDTH 11 0
BBX 8 10 2 0
BITMAP
20
20
24
22
20
20
27
29
31
FF
ENDCHAR
STARTCHAR 00E1
ENCODING 225
SWIDTH 420 0
DWIDTH 7 0
BBX 8 13 1 -6
BITMAP
38
40
60
7C
7C
30
20
40
80
80
80
C0
7F
ENDCHAR
STARTCHAR 00E2
ENCODING 226
SWIDTH 480 0
DWIDTH 8 0
BBX 7 11 1 -6
BITMAP
38
38
30
28
46
40
40
C0
40
60
3E
ENDCHAR
STARTCHAR 00E3
ENCODING 227
SWIDTH 420 0
DWIDTH 7 0
BBX 8 6 -1 0
BITMAP
0C
1E
1E
06
0C
FB
ENDCHAR
STARTCHAR 00E4
ENCODING 228
SWIDTH 480 0
DWIDTH 8 0
BBX 9 6 -1 0
BITMAP
0C00
0A00
1000
1800
1F00
FF80
ENDCHAR
STARTCHAR 00E5
ENCODING 229
SWIDTH 420 0
DWIDTH 7 0
BBX 8 16 1 -6
BITMAP
10
10
00
38
40
60
7C
7C
30
20
40
80
80
80
C0
7F
ENDCHAR
STARTCHAR 00E6
ENCODING 230
SWIDTH 480 0
DWIDTH 8 0
BBX 7 15 1 -6
BITMAP
10
10
00
00
38
38
30
28
46
40
40
C0
40
60
3E
ENDCHAR
STARTCHAR 00E7
ENCODING 231
SWIDTH 420 0
DWIDTH 7 0
BBX 8 8 -1 0
BITMAP
0C
00
0C
1E
1E
06
0C
FB
ENDCHAR
STARTCHAR 00E8
ENCODING 232
SWIDTH 480 0
DWIDTH 8 0
BBX 9 9 -1 0
BITMAP
0800
0000
0000
0C00
0A00
1000
1800
1F00
FF80
ENDCHAR
STARTCHAR 00E9
ENCODING 233
SWIDTH 840 0
DWIDTH 14 0
BBX 12 9 1 0
BITMAP
0020
0020
0000
0020
0050
0050
8070
C030
7FF0
ENDCHAR
STARTCHAR 00EA
ENCODING 234
SWIDTH 300 0
DWIDTH 5 0
BBX 6 9 -1 0
BITMAP
18
08
00
08
14
24
3C
0C
FC
ENDCHAR
STARTCHAR 00EB
ENCODING 235
SWIDTH 600 0
DWIDTH 10 0
BBX 9 12 1 -4
BITMAP
0200
0D00
0000
0200
0500
0500
0500
0780
8080
C100
4200
3C00
ENDCHAR
STARTCHAR 00EC
ENCODING 236
SWIDTH 300 0
DWIDTH 5 0
BBX 6 9 -1 0
BITMAP
28
34
00
08
1C
24
3C
0C
FC
ENDCHAR
STARTCHAR 00ED
ENCODING 237
SWIDTH 720 0
DWIDTH 12 0
BBX 11 10 1 0
BITMAP
0020
01C0
0700
0400
0600
0500
0080
8040
4020
7FE0
ENDCHAR
STARTCHAR 00EE
ENCODING 238
SWIDTH 480 0
DWIDTH 8 0
BBX 8 10 0 0
BITMAP
03
0C
30
60
70
38
0C
06
03
FF
ENDCHAR
STARTCHAR 00EF
ENCODING 239
SWIDTH 720 0
DWIDTH 12 0
BBX 11 11 1 0
BITMAP
0020
01E0
03E0
0700
0400
0600
0500
0080
8040
4020
7FE0
ENDCHAR
STARTCHAR 00F0
ENCODING 240
SWIDTH 420 0
DWIDTH 7 0
BBX 8 11 -1 0
BITMAP
02
0F
0E
38
40
70
38
0C
02
01
FF
ENDCHAR
STARTCHAR 00F1
ENCODING 241
SWIDTH 540 0
DWIDTH 9 0
BBX 7 12 1 -3
BITMAP
02
02
02
02
02
02
02
02
82
82
46
3C
ENDCHAR
STARTCHAR 00F2
ENCODING 242
SWIDTH 540 0
DWIDTH 9 0
BBX 7 10 1 0
BITMAP
02
C6
E2
72
12
0C
04
0C
34
3C
ENDCHAR
STARTCHAR 00F3
ENCODING 243
SWIDTH 240 0
DWIDTH 4 0
BBX 5 9 -1 0
BITMAP
10
10
10
10
10
18
18
18
F8
ENDCHAR
STARTCHAR 00F4
ENCODING 244
SWIDTH 480 0
DWIDTH 8 0
BBX 7 10 1 -5
BITMAP
10
38
58
4C
7E
80
40
40
40
40
ENDCHAR
STARTCHAR 00F5
ENCODING 245
SWIDTH 420 0
DWIDTH 7 0
BBX 8 5 -1 0
BITMAP
06
09
09
09
F7
ENDCHAR
STARTCHAR 00F6
ENCODING 246
SWIDTH 540 0
DWIDTH 9 0
BBX 8 12 1 -4
BITMAP
08
08
00
00
00
01
01
41
81
81
83
7C
ENDCHAR
STARTCHAR 00F7
ENCODING 247
SWIDTH 300 0
DWIDTH 5 0
BBX 6 8 0 0
BITMAP
30
00
00
00
08
0C
04
FC
ENDCHAR
STARTCHAR 00F8
ENCODING 248
SWIDTH 480 0
DWIDTH 8 0
BBX 7 9 1 -4
BITMAP
04
0C
0A
0A
0E
0C
04
88
70
ENDCHAR
STARTCHAR 00F9
ENCODING 249
SWIDTH 360 0
DWIDTH 6 0
BBX 5 6 1 0
BITMAP
20
30
78
58
C8
78
ENDCHAR
STARTCHAR 00FA
ENCODING 250
SWIDTH 420 0
DWIDTH 7 0
BBX 8 9 -1 -3
BITMAP
04
0C
0C
14
1C
FF
14
14
0C
ENDCHAR
STARTCHAR 00FB
ENCODING 251
SWIDTH 480 0
DWIDTH 8 0
BBX 8 7 -1 0
BITMAP
04
06
07
0D
15
1F
F3
ENDCHAR
STARTCHAR 00FC
ENCODING 252
SWIDTH 600 0
DWIDTH 10 0
BBX 9 6 1 -5
BITMAP
4180
8200
8780
8380
C100
7E00
ENDCHAR
STARTCHAR 00FD
ENCODING 253
SWIDTH 660 0
DWIDTH 11 0
BBX 10 8 1 -3
BITMAP
00C0
03C0
4600
8400
87C0
8040
C380
7C00
ENDCHAR
STARTCHAR 00FE
ENCODING 254
SWIDTH 300 0
DWIDTH 5 0
BBX 5 9 -1 -4
BITMAP
08
08
08
08
F8
00
00
08
38
ENDCHAR
STARTCHAR 0131
ENCODING 305
SWIDTH 300 0
DWIDTH 5 0
BBX 3 8 1 0
BITMAP
40
C0
40
40
40
40
60
E0
ENDCHAR
STARTCHAR 0152
ENCODING 338
SWIDTH 360 0
DWIDTH 6 0
BBX 5 9 1 0
BITMAP
78
48
80
40
70
10
10
00
18
ENDCHAR
STARTCHAR 0153
ENCODING 339
SWIDTH 480 0
DWIDTH 8 0
BBX 8 10 1 -6
BITMAP
62
BE
30
40
70
DC
C8
44
61
3E
ENDCHAR
STARTCHAR 0160
ENCODING 352
SWIDTH 240 0
DWIDTH 4 0
BBX 2 2 1 1
BITMAP
40
80
ENDCHAR
ENDFONT
